<mxfile host="Electron" modified="2023-12-05T16:49:25.296Z" agent="Mozilla/5.0 (Windows NT 10.0; Win64; x64) AppleWebKit/537.36 (KHTML, like Gecko) draw.io/22.0.3 Chrome/114.0.5735.289 Electron/25.8.4 Safari/537.36" etag="UU4TJJVOxTzuhR29hs2O" version="22.0.3" type="device">
  <diagram name="Page-1" id="shzPRt6RXg3I0el30iVk">
    <mxGraphModel dx="1036" dy="606" grid="1" gridSize="10" guides="1" tooltips="1" connect="1" arrows="1" fold="1" page="1" pageScale="1" pageWidth="850" pageHeight="1100" math="0" shadow="0">
      <root>
        <mxCell id="0" />
        <mxCell id="1" parent="0" />
        <mxCell id="c1HssWllYPfbHJCIFZM1-12" value="" style="edgeStyle=orthogonalEdgeStyle;rounded=0;orthogonalLoop=1;jettySize=auto;html=1;" edge="1" parent="1" source="c1HssWllYPfbHJCIFZM1-1" target="c1HssWllYPfbHJCIFZM1-11">
          <mxGeometry relative="1" as="geometry" />
        </mxCell>
        <mxCell id="c1HssWllYPfbHJCIFZM1-1" value="start" style="ellipse;whiteSpace=wrap;html=1;" vertex="1" parent="1">
          <mxGeometry x="10" y="750" width="120" height="80" as="geometry" />
        </mxCell>
        <mxCell id="c1HssWllYPfbHJCIFZM1-4" value="" style="edgeStyle=orthogonalEdgeStyle;rounded=0;orthogonalLoop=1;jettySize=auto;html=1;" edge="1" parent="1" source="c1HssWllYPfbHJCIFZM1-2" target="c1HssWllYPfbHJCIFZM1-3">
          <mxGeometry relative="1" as="geometry" />
        </mxCell>
        <mxCell id="c1HssWllYPfbHJCIFZM1-2" value="&lt;div style=&quot;color: rgb(204, 204, 204); background-color: rgb(31, 31, 31); font-family: Consolas, &amp;quot;Courier New&amp;quot;, monospace; font-size: 14px; line-height: 19px;&quot;&gt;&lt;div&gt;struct &lt;span style=&quot;color: #4ec9b0;&quot;&gt;student&lt;/span&gt;{&lt;/div&gt;&lt;div&gt;&amp;nbsp; &amp;nbsp; &lt;span style=&quot;color: #569cd6;&quot;&gt;char&lt;/span&gt; &lt;span style=&quot;color: #9cdcfe;&quot;&gt;name&lt;/span&gt;[&lt;span style=&quot;color: #b5cea8;&quot;&gt;30&lt;/span&gt;];&lt;/div&gt;&lt;div&gt;&amp;nbsp; &amp;nbsp; &lt;span style=&quot;color: #569cd6;&quot;&gt;int&lt;/span&gt; &lt;span style=&quot;color: #9cdcfe;&quot;&gt;age&lt;/span&gt;, &lt;span style=&quot;color: #9cdcfe;&quot;&gt;phone_number&lt;/span&gt;;&lt;/div&gt;&lt;div&gt;&amp;nbsp; &amp;nbsp; &lt;span style=&quot;color: #569cd6;&quot;&gt;char&lt;/span&gt; &lt;span style=&quot;color: #9cdcfe;&quot;&gt;email_adress&lt;/span&gt;[&lt;span style=&quot;color: #b5cea8;&quot;&gt;100&lt;/span&gt;];&lt;/div&gt;&lt;div&gt;};&lt;/div&gt;&lt;/div&gt;" style="rounded=0;whiteSpace=wrap;html=1;" vertex="1" parent="1">
          <mxGeometry x="20" y="30" width="350" height="60" as="geometry" />
        </mxCell>
        <mxCell id="c1HssWllYPfbHJCIFZM1-3" value="&#xa;&lt;div style=&quot;color: rgb(204, 204, 204); background-color: rgb(31, 31, 31); font-family: Consolas, &amp;quot;Courier New&amp;quot;, monospace; font-weight: normal; font-size: 14px; line-height: 19px;&quot;&gt;&lt;div&gt;&lt;span style=&quot;color: #569cd6;&quot;&gt;typedef&lt;/span&gt;&lt;span style=&quot;color: #cccccc;&quot;&gt; &lt;/span&gt;&lt;span style=&quot;color: #569cd6;&quot;&gt;struct&lt;/span&gt;&lt;span style=&quot;color: #cccccc;&quot;&gt; &lt;/span&gt;&lt;span style=&quot;color: #4ec9b0;&quot;&gt;student&lt;/span&gt;&lt;span style=&quot;color: #cccccc;&quot;&gt; &lt;/span&gt;&lt;span style=&quot;color: #4ec9b0;&quot;&gt;std&lt;/span&gt;&lt;span style=&quot;color: #cccccc;&quot;&gt;;&lt;/span&gt;&lt;/div&gt;&lt;/div&gt;&#xa;&#xa;" style="whiteSpace=wrap;html=1;rounded=0;" vertex="1" parent="1">
          <mxGeometry x="565" y="30" width="235" height="60" as="geometry" />
        </mxCell>
        <mxCell id="c1HssWllYPfbHJCIFZM1-5" value="&lt;div style=&quot;color: rgb(204, 204, 204); background-color: rgb(31, 31, 31); font-family: Consolas, &amp;quot;Courier New&amp;quot;, monospace; font-size: 14px; line-height: 19px;&quot;&gt;&lt;div&gt;void &lt;span style=&quot;color: #dcdcaa;&quot;&gt;input&lt;/span&gt;(&lt;span style=&quot;color: #4ec9b0;&quot;&gt;std&lt;/span&gt; &lt;span style=&quot;color: #d4d4d4;&quot;&gt;*&lt;/span&gt;&lt;span style=&quot;color: #9cdcfe;&quot;&gt;temp&lt;/span&gt;){&lt;/div&gt;&lt;div&gt;&amp;nbsp; &amp;nbsp; &lt;span style=&quot;color: #dcdcaa;&quot;&gt;printf&lt;/span&gt;(&lt;span style=&quot;color: #ce9178;&quot;&gt;&quot;nhap ten sinh vien:&quot;&lt;/span&gt;);&lt;/div&gt;&lt;div&gt;&amp;nbsp; &amp;nbsp; &lt;span style=&quot;color: #dcdcaa;&quot;&gt;getchar&lt;/span&gt;();&lt;/div&gt;&lt;div&gt;&amp;nbsp; &amp;nbsp; &lt;span style=&quot;color: #dcdcaa;&quot;&gt;gets&lt;/span&gt;(&lt;span style=&quot;color: #9cdcfe;&quot;&gt;temp&lt;/span&gt;-&amp;gt;&lt;span style=&quot;color: #9cdcfe;&quot;&gt;name&lt;/span&gt;);&lt;/div&gt;&lt;div&gt;&amp;nbsp; &amp;nbsp; &lt;span style=&quot;color: #dcdcaa;&quot;&gt;printf&lt;/span&gt;(&lt;span style=&quot;color: #ce9178;&quot;&gt;&quot;nhap tuoi:&quot;&lt;/span&gt;);&lt;/div&gt;&lt;div&gt;&amp;nbsp; &amp;nbsp; &lt;span style=&quot;color: #dcdcaa;&quot;&gt;scanf&lt;/span&gt;(&lt;span style=&quot;color: #ce9178;&quot;&gt;&quot;&lt;/span&gt;&lt;span style=&quot;color: #9cdcfe;&quot;&gt;%d&lt;/span&gt;&lt;span style=&quot;color: #ce9178;&quot;&gt;&quot;&lt;/span&gt;,&lt;span style=&quot;color: #d4d4d4;&quot;&gt;&amp;amp;&lt;/span&gt;&lt;span style=&quot;color: #9cdcfe;&quot;&gt;temp&lt;/span&gt;-&amp;gt;&lt;span style=&quot;color: #9cdcfe;&quot;&gt;age&lt;/span&gt;);&lt;/div&gt;&lt;div&gt;&amp;nbsp; &amp;nbsp; &lt;span style=&quot;color: #dcdcaa;&quot;&gt;printf&lt;/span&gt;(&lt;span style=&quot;color: #ce9178;&quot;&gt;&quot;nhap sdt:&quot;&lt;/span&gt;);&lt;/div&gt;&lt;div&gt;&amp;nbsp; &amp;nbsp; &lt;span style=&quot;color: #dcdcaa;&quot;&gt;scanf&lt;/span&gt;(&lt;span style=&quot;color: #ce9178;&quot;&gt;&quot;&lt;/span&gt;&lt;span style=&quot;color: #9cdcfe;&quot;&gt;%d&lt;/span&gt;&lt;span style=&quot;color: #ce9178;&quot;&gt;&quot;&lt;/span&gt;,&lt;span style=&quot;color: #d4d4d4;&quot;&gt;&amp;amp;&lt;/span&gt;&lt;span style=&quot;color: #9cdcfe;&quot;&gt;temp&lt;/span&gt;-&amp;gt;&lt;span style=&quot;color: #9cdcfe;&quot;&gt;phone_number&lt;/span&gt;);&lt;/div&gt;&lt;div&gt;&amp;nbsp; &amp;nbsp; &lt;span style=&quot;color: #dcdcaa;&quot;&gt;printf&lt;/span&gt;(&lt;span style=&quot;color: #ce9178;&quot;&gt;&quot;nhap email:&quot;&lt;/span&gt;);&lt;/div&gt;&lt;div&gt;&amp;nbsp; &amp;nbsp; &lt;span style=&quot;color: #dcdcaa;&quot;&gt;getchar&lt;/span&gt;();&lt;/div&gt;&lt;div&gt;&amp;nbsp; &amp;nbsp; &lt;span style=&quot;color: #dcdcaa;&quot;&gt;gets&lt;/span&gt;(&lt;span style=&quot;color: #9cdcfe;&quot;&gt;temp&lt;/span&gt;-&amp;gt;&lt;span style=&quot;color: #9cdcfe;&quot;&gt;email_adress&lt;/span&gt;);&lt;/div&gt;&lt;div&gt;}&lt;/div&gt;&lt;/div&gt;" style="rounded=0;whiteSpace=wrap;html=1;" vertex="1" parent="1">
          <mxGeometry x="45" y="230" width="300" height="60" as="geometry" />
        </mxCell>
        <mxCell id="c1HssWllYPfbHJCIFZM1-6" value="&lt;div style=&quot;color: rgb(204, 204, 204); background-color: rgb(31, 31, 31); font-family: Consolas, &amp;quot;Courier New&amp;quot;, monospace; font-size: 14px; line-height: 19px;&quot;&gt;&lt;div&gt;void &lt;span style=&quot;color: #dcdcaa;&quot;&gt;output&lt;/span&gt;( &lt;span style=&quot;color: #4ec9b0;&quot;&gt;std&lt;/span&gt; &lt;span style=&quot;color: #d4d4d4;&quot;&gt;*&lt;/span&gt;&lt;span style=&quot;color: #9cdcfe;&quot;&gt;temp&lt;/span&gt;){&lt;/div&gt;&lt;div&gt;&amp;nbsp; &amp;nbsp; &lt;span style=&quot;color: #dcdcaa;&quot;&gt;printf&lt;/span&gt;(&lt;span style=&quot;color: #ce9178;&quot;&gt;&quot;ten:&lt;/span&gt;&lt;span style=&quot;color: #9cdcfe;&quot;&gt;%s&lt;/span&gt;&lt;span style=&quot;color: #ce9178;&quot;&gt;, tuoi:&lt;/span&gt;&lt;span style=&quot;color: #9cdcfe;&quot;&gt;%d&lt;/span&gt;&lt;span style=&quot;color: #ce9178;&quot;&gt;, sdt:&lt;/span&gt;&lt;span style=&quot;color: #9cdcfe;&quot;&gt;%d&lt;/span&gt;&lt;span style=&quot;color: #ce9178;&quot;&gt;, email:&lt;/span&gt;&lt;span style=&quot;color: #9cdcfe;&quot;&gt;%s&lt;/span&gt;&lt;span style=&quot;color: #d7ba7d;&quot;&gt;\n&lt;/span&gt;&lt;span style=&quot;color: #ce9178;&quot;&gt;&quot;&lt;/span&gt;,&lt;span style=&quot;color: #9cdcfe;&quot;&gt;temp&lt;/span&gt;-&amp;gt;&lt;span style=&quot;color: #9cdcfe;&quot;&gt;name&lt;/span&gt;, &lt;span style=&quot;color: #9cdcfe;&quot;&gt;temp&lt;/span&gt;-&amp;gt;&lt;span style=&quot;color: #9cdcfe;&quot;&gt;age&lt;/span&gt;, &lt;span style=&quot;color: #9cdcfe;&quot;&gt;temp&lt;/span&gt;-&amp;gt;&lt;span style=&quot;color: #9cdcfe;&quot;&gt;phone_number&lt;/span&gt;, &lt;span style=&quot;color: #9cdcfe;&quot;&gt;temp&lt;/span&gt;-&amp;gt;&lt;span style=&quot;color: #9cdcfe;&quot;&gt;email_adress&lt;/span&gt;);&lt;/div&gt;&lt;/div&gt;" style="rounded=0;whiteSpace=wrap;html=1;" vertex="1" parent="1">
          <mxGeometry x="540" y="230" width="1090" height="60" as="geometry" />
        </mxCell>
        <mxCell id="c1HssWllYPfbHJCIFZM1-9" value="&lt;div style=&quot;color: rgb(204, 204, 204); background-color: rgb(31, 31, 31); font-family: Consolas, &amp;quot;Courier New&amp;quot;, monospace; font-size: 14px; line-height: 19px;&quot;&gt;&lt;div&gt;void &lt;span style=&quot;color: #dcdcaa;&quot;&gt;input_file&lt;/span&gt;(&lt;span style=&quot;color: #4ec9b0;&quot;&gt;std&lt;/span&gt; &lt;span style=&quot;color: #9cdcfe;&quot;&gt;list&lt;/span&gt;&lt;span style=&quot;color: #569cd6;&quot;&gt;[]&lt;/span&gt;, &lt;span style=&quot;color: #569cd6;&quot;&gt;int&lt;/span&gt; &lt;span style=&quot;color: #9cdcfe;&quot;&gt;n&lt;/span&gt;){&lt;/div&gt;&lt;div&gt;&amp;nbsp; &amp;nbsp; &lt;span style=&quot;color: #4ec9b0;&quot;&gt;FILE&lt;/span&gt; &lt;span style=&quot;color: #d4d4d4;&quot;&gt;*&lt;/span&gt;&lt;span style=&quot;color: #9cdcfe;&quot;&gt;f&lt;/span&gt;;&lt;/div&gt;&lt;div&gt;&amp;nbsp; &amp;nbsp; &lt;span style=&quot;color: #9cdcfe;&quot;&gt;f&lt;/span&gt; &lt;span style=&quot;color: #d4d4d4;&quot;&gt;=&lt;/span&gt; &lt;span style=&quot;color: #dcdcaa;&quot;&gt;fopen&lt;/span&gt;(&lt;span style=&quot;color: #ce9178;&quot;&gt;&quot;students.txt&quot;&lt;/span&gt;,&lt;span style=&quot;color: #ce9178;&quot;&gt;&quot;wb&quot;&lt;/span&gt;);&lt;/div&gt;&lt;div&gt;&amp;nbsp; &amp;nbsp; &lt;span style=&quot;color: #c586c0;&quot;&gt;if&lt;/span&gt; (&lt;span style=&quot;color: #9cdcfe;&quot;&gt;f&lt;/span&gt; &lt;span style=&quot;color: #d4d4d4;&quot;&gt;==&lt;/span&gt; &lt;span style=&quot;color: #569cd6;&quot;&gt;NULL&lt;/span&gt;) {&lt;/div&gt;&lt;div&gt;&amp;nbsp; &amp;nbsp; &amp;nbsp; &amp;nbsp; &lt;span style=&quot;color: #dcdcaa;&quot;&gt;printf&lt;/span&gt;(&lt;span style=&quot;color: #ce9178;&quot;&gt;&quot;khong the mo file&quot;&lt;/span&gt;);&lt;/div&gt;&lt;div&gt;&amp;nbsp; &amp;nbsp; &amp;nbsp; &amp;nbsp; &lt;span style=&quot;color: #dcdcaa;&quot;&gt;exit&lt;/span&gt;(&lt;span style=&quot;color: #b5cea8;&quot;&gt;0&lt;/span&gt;);&lt;/div&gt;&lt;div&gt;&amp;nbsp; &amp;nbsp; }&lt;/div&gt;&lt;div&gt;&amp;nbsp; &amp;nbsp; &lt;span style=&quot;color: #c586c0;&quot;&gt;for&lt;/span&gt; (&lt;span style=&quot;color: #569cd6;&quot;&gt;int&lt;/span&gt; &lt;span style=&quot;color: #9cdcfe;&quot;&gt;i&lt;/span&gt;&lt;span style=&quot;color: #d4d4d4;&quot;&gt;=&lt;/span&gt;&lt;span style=&quot;color: #b5cea8;&quot;&gt;0&lt;/span&gt;;&lt;span style=&quot;color: #9cdcfe;&quot;&gt;i&lt;/span&gt;&lt;span style=&quot;color: #d4d4d4;&quot;&gt;&amp;lt;&lt;/span&gt;&lt;span style=&quot;color: #9cdcfe;&quot;&gt;n&lt;/span&gt;;&lt;span style=&quot;color: #9cdcfe;&quot;&gt;i&lt;/span&gt;&lt;span style=&quot;color: #d4d4d4;&quot;&gt;++&lt;/span&gt;){&lt;/div&gt;&lt;div&gt;&amp;nbsp; &amp;nbsp; &amp;nbsp; &amp;nbsp; &lt;span style=&quot;color: #dcdcaa;&quot;&gt;fwrite&lt;/span&gt;(&lt;span style=&quot;color: #d4d4d4;&quot;&gt;&amp;amp;&lt;/span&gt;&lt;span style=&quot;color: #9cdcfe;&quot;&gt;list&lt;/span&gt;[&lt;span style=&quot;color: #9cdcfe;&quot;&gt;i&lt;/span&gt;], &lt;span style=&quot;color: #569cd6;&quot;&gt;sizeof&lt;/span&gt;(&lt;span style=&quot;color: #4ec9b0;&quot;&gt;std&lt;/span&gt;), &lt;span style=&quot;color: #b5cea8;&quot;&gt;1&lt;/span&gt;, &lt;span style=&quot;color: #9cdcfe;&quot;&gt;f&lt;/span&gt;);&lt;/div&gt;&lt;div&gt;&amp;nbsp; &amp;nbsp; }&lt;/div&gt;&lt;div&gt;&amp;nbsp; &amp;nbsp; &lt;span style=&quot;color: #dcdcaa;&quot;&gt;fclose&lt;/span&gt;(&lt;span style=&quot;color: #9cdcfe;&quot;&gt;f&lt;/span&gt;);&lt;/div&gt;&lt;div&gt;}&lt;/div&gt;&lt;/div&gt;" style="rounded=0;whiteSpace=wrap;html=1;" vertex="1" parent="1">
          <mxGeometry x="20" y="500" width="360" height="60" as="geometry" />
        </mxCell>
        <mxCell id="c1HssWllYPfbHJCIFZM1-10" value="&lt;div style=&quot;color: rgb(204, 204, 204); background-color: rgb(31, 31, 31); font-family: Consolas, &amp;quot;Courier New&amp;quot;, monospace; font-size: 14px; line-height: 19px;&quot;&gt;&lt;div&gt;void &lt;span style=&quot;color: #dcdcaa;&quot;&gt;output_file&lt;/span&gt;(&lt;span style=&quot;color: #4ec9b0;&quot;&gt;std&lt;/span&gt; &lt;span style=&quot;color: #9cdcfe;&quot;&gt;list&lt;/span&gt;&lt;span style=&quot;color: #569cd6;&quot;&gt;[]&lt;/span&gt;, &lt;span style=&quot;color: #569cd6;&quot;&gt;int&lt;/span&gt; &lt;span style=&quot;color: #9cdcfe;&quot;&gt;n&lt;/span&gt;){&lt;/div&gt;&lt;div&gt;&amp;nbsp; &amp;nbsp; &lt;span style=&quot;color: #4ec9b0;&quot;&gt;FILE&lt;/span&gt; &lt;span style=&quot;color: #d4d4d4;&quot;&gt;*&lt;/span&gt;&lt;span style=&quot;color: #9cdcfe;&quot;&gt;f&lt;/span&gt;;&lt;/div&gt;&lt;div&gt;&amp;nbsp; &amp;nbsp; &lt;span style=&quot;color: #9cdcfe;&quot;&gt;f&lt;/span&gt; &lt;span style=&quot;color: #d4d4d4;&quot;&gt;=&lt;/span&gt; &lt;span style=&quot;color: #dcdcaa;&quot;&gt;fopen&lt;/span&gt;(&lt;span style=&quot;color: #ce9178;&quot;&gt;&quot;students.txt&quot;&lt;/span&gt;,&lt;span style=&quot;color: #ce9178;&quot;&gt;&quot;rb&quot;&lt;/span&gt;);&lt;/div&gt;&lt;div&gt;&amp;nbsp; &amp;nbsp; &lt;span style=&quot;color: #c586c0;&quot;&gt;if&lt;/span&gt; (&lt;span style=&quot;color: #9cdcfe;&quot;&gt;f&lt;/span&gt; &lt;span style=&quot;color: #d4d4d4;&quot;&gt;==&lt;/span&gt; &lt;span style=&quot;color: #569cd6;&quot;&gt;NULL&lt;/span&gt;) {&lt;/div&gt;&lt;div&gt;&amp;nbsp; &amp;nbsp; &amp;nbsp; &amp;nbsp; &lt;span style=&quot;color: #dcdcaa;&quot;&gt;printf&lt;/span&gt;(&lt;span style=&quot;color: #ce9178;&quot;&gt;&quot;khong the mo file&quot;&lt;/span&gt;);&lt;/div&gt;&lt;div&gt;&amp;nbsp; &amp;nbsp; &amp;nbsp; &amp;nbsp; &lt;span style=&quot;color: #dcdcaa;&quot;&gt;exit&lt;/span&gt;(&lt;span style=&quot;color: #b5cea8;&quot;&gt;0&lt;/span&gt;);&lt;/div&gt;&lt;div&gt;&amp;nbsp; &amp;nbsp; }&lt;/div&gt;&lt;div&gt;&amp;nbsp; &amp;nbsp; &lt;span style=&quot;color: #c586c0;&quot;&gt;for&lt;/span&gt; (&lt;span style=&quot;color: #569cd6;&quot;&gt;int&lt;/span&gt; &lt;span style=&quot;color: #9cdcfe;&quot;&gt;i&lt;/span&gt;&lt;span style=&quot;color: #d4d4d4;&quot;&gt;=&lt;/span&gt;&lt;span style=&quot;color: #b5cea8;&quot;&gt;0&lt;/span&gt;;&lt;span style=&quot;color: #9cdcfe;&quot;&gt;i&lt;/span&gt;&lt;span style=&quot;color: #d4d4d4;&quot;&gt;&amp;lt;&lt;/span&gt;&lt;span style=&quot;color: #9cdcfe;&quot;&gt;n&lt;/span&gt;;&lt;span style=&quot;color: #9cdcfe;&quot;&gt;i&lt;/span&gt;&lt;span style=&quot;color: #d4d4d4;&quot;&gt;++&lt;/span&gt;){&lt;/div&gt;&lt;div&gt;&amp;nbsp; &amp;nbsp; &amp;nbsp; &amp;nbsp; &lt;span style=&quot;color: #dcdcaa;&quot;&gt;fread&lt;/span&gt;(&lt;span style=&quot;color: #d4d4d4;&quot;&gt;&amp;amp;&lt;/span&gt;&lt;span style=&quot;color: #9cdcfe;&quot;&gt;list&lt;/span&gt;[&lt;span style=&quot;color: #9cdcfe;&quot;&gt;i&lt;/span&gt;], &lt;span style=&quot;color: #569cd6;&quot;&gt;sizeof&lt;/span&gt;(&lt;span style=&quot;color: #4ec9b0;&quot;&gt;std&lt;/span&gt;), &lt;span style=&quot;color: #b5cea8;&quot;&gt;1&lt;/span&gt;, &lt;span style=&quot;color: #9cdcfe;&quot;&gt;f&lt;/span&gt;);&lt;/div&gt;&lt;div&gt;&amp;nbsp; &amp;nbsp; }&lt;/div&gt;&lt;div&gt;&amp;nbsp; &amp;nbsp; &lt;span style=&quot;color: #dcdcaa;&quot;&gt;fclose&lt;/span&gt;(&lt;span style=&quot;color: #9cdcfe;&quot;&gt;f&lt;/span&gt;);&lt;/div&gt;&lt;div&gt;}&lt;/div&gt;&lt;/div&gt;" style="rounded=0;whiteSpace=wrap;html=1;" vertex="1" parent="1">
          <mxGeometry x="630" y="500" width="350" height="60" as="geometry" />
        </mxCell>
        <mxCell id="c1HssWllYPfbHJCIFZM1-14" value="" style="edgeStyle=orthogonalEdgeStyle;rounded=0;orthogonalLoop=1;jettySize=auto;html=1;" edge="1" parent="1" source="c1HssWllYPfbHJCIFZM1-11" target="c1HssWllYPfbHJCIFZM1-13">
          <mxGeometry relative="1" as="geometry" />
        </mxCell>
        <mxCell id="c1HssWllYPfbHJCIFZM1-11" value="input choice" style="shape=parallelogram;perimeter=parallelogramPerimeter;whiteSpace=wrap;html=1;fixedSize=1;" vertex="1" parent="1">
          <mxGeometry x="10" y="880" width="120" height="60" as="geometry" />
        </mxCell>
        <mxCell id="c1HssWllYPfbHJCIFZM1-16" value="" style="edgeStyle=orthogonalEdgeStyle;rounded=0;orthogonalLoop=1;jettySize=auto;html=1;" edge="1" parent="1" source="c1HssWllYPfbHJCIFZM1-13" target="c1HssWllYPfbHJCIFZM1-15">
          <mxGeometry relative="1" as="geometry" />
        </mxCell>
        <mxCell id="c1HssWllYPfbHJCIFZM1-18" value="" style="edgeStyle=orthogonalEdgeStyle;rounded=0;orthogonalLoop=1;jettySize=auto;html=1;" edge="1" parent="1" source="c1HssWllYPfbHJCIFZM1-13" target="c1HssWllYPfbHJCIFZM1-17">
          <mxGeometry relative="1" as="geometry" />
        </mxCell>
        <mxCell id="c1HssWllYPfbHJCIFZM1-13" value="case 1" style="rhombus;whiteSpace=wrap;html=1;" vertex="1" parent="1">
          <mxGeometry x="30" y="1010" width="80" height="80" as="geometry" />
        </mxCell>
        <mxCell id="c1HssWllYPfbHJCIFZM1-15" value="&lt;div style=&quot;color: rgb(204, 204, 204); background-color: rgb(31, 31, 31); font-family: Consolas, &amp;quot;Courier New&amp;quot;, monospace; font-size: 14px; line-height: 19px;&quot;&gt;&lt;div&gt;printf(&lt;span style=&quot;color: #ce9178;&quot;&gt;&quot;nhap vao so hoc sinh:&quot;&lt;/span&gt;);&lt;/div&gt;&lt;div&gt;&amp;nbsp; &amp;nbsp; &amp;nbsp; &amp;nbsp; &amp;nbsp; &amp;nbsp; &amp;nbsp; &amp;nbsp; &lt;span style=&quot;color: #dcdcaa;&quot;&gt;scanf&lt;/span&gt;(&lt;span style=&quot;color: #ce9178;&quot;&gt;&quot;&lt;/span&gt;&lt;span style=&quot;color: #9cdcfe;&quot;&gt;%d&lt;/span&gt;&lt;span style=&quot;color: #ce9178;&quot;&gt;&quot;&lt;/span&gt;,&lt;span style=&quot;color: #d4d4d4;&quot;&gt;&amp;amp;&lt;/span&gt;&lt;span style=&quot;color: #9cdcfe;&quot;&gt;n&lt;/span&gt;);&lt;/div&gt;&lt;div&gt;&amp;nbsp; &amp;nbsp; &amp;nbsp; &amp;nbsp; &amp;nbsp; &amp;nbsp; &amp;nbsp; &amp;nbsp; &lt;span style=&quot;color: #c586c0;&quot;&gt;for&lt;/span&gt; (&lt;span style=&quot;color: #569cd6;&quot;&gt;int&lt;/span&gt; &lt;span style=&quot;color: #9cdcfe;&quot;&gt;i&lt;/span&gt;&lt;span style=&quot;color: #d4d4d4;&quot;&gt;=&lt;/span&gt;&lt;span style=&quot;color: #b5cea8;&quot;&gt;0&lt;/span&gt;;&lt;span style=&quot;color: #9cdcfe;&quot;&gt;i&lt;/span&gt;&lt;span style=&quot;color: #d4d4d4;&quot;&gt;&amp;lt;&lt;/span&gt;&lt;span style=&quot;color: #9cdcfe;&quot;&gt;n&lt;/span&gt;;&lt;span style=&quot;color: #9cdcfe;&quot;&gt;i&lt;/span&gt;&lt;span style=&quot;color: #d4d4d4;&quot;&gt;++&lt;/span&gt;){&lt;/div&gt;&lt;div&gt;&amp;nbsp; &amp;nbsp; &amp;nbsp; &amp;nbsp; &amp;nbsp; &amp;nbsp; &amp;nbsp; &amp;nbsp; &amp;nbsp; &amp;nbsp; &lt;span style=&quot;color: #dcdcaa;&quot;&gt;input&lt;/span&gt;(&lt;span style=&quot;color: #d4d4d4;&quot;&gt;&amp;amp;&lt;/span&gt;&lt;span style=&quot;color: #9cdcfe;&quot;&gt;student_list&lt;/span&gt;[&lt;span style=&quot;color: #9cdcfe;&quot;&gt;i&lt;/span&gt;]);&lt;/div&gt;&lt;div&gt;&amp;nbsp; &amp;nbsp; &amp;nbsp; &amp;nbsp; &amp;nbsp; &amp;nbsp; &amp;nbsp; &amp;nbsp; }&lt;/div&gt;&lt;/div&gt;" style="whiteSpace=wrap;html=1;" vertex="1" parent="1">
          <mxGeometry x="170" y="1020" width="450" height="60" as="geometry" />
        </mxCell>
        <mxCell id="c1HssWllYPfbHJCIFZM1-20" value="" style="edgeStyle=orthogonalEdgeStyle;rounded=0;orthogonalLoop=1;jettySize=auto;html=1;" edge="1" parent="1" source="c1HssWllYPfbHJCIFZM1-17" target="c1HssWllYPfbHJCIFZM1-19">
          <mxGeometry relative="1" as="geometry" />
        </mxCell>
        <mxCell id="c1HssWllYPfbHJCIFZM1-22" value="" style="edgeStyle=orthogonalEdgeStyle;rounded=0;orthogonalLoop=1;jettySize=auto;html=1;" edge="1" parent="1" source="c1HssWllYPfbHJCIFZM1-17" target="c1HssWllYPfbHJCIFZM1-21">
          <mxGeometry relative="1" as="geometry" />
        </mxCell>
        <mxCell id="c1HssWllYPfbHJCIFZM1-17" value="case 2" style="rhombus;whiteSpace=wrap;html=1;" vertex="1" parent="1">
          <mxGeometry x="30" y="1170" width="80" height="80" as="geometry" />
        </mxCell>
        <mxCell id="c1HssWllYPfbHJCIFZM1-19" value="&lt;div style=&quot;color: rgb(204, 204, 204); background-color: rgb(31, 31, 31); font-family: Consolas, &amp;quot;Courier New&amp;quot;, monospace; font-size: 14px; line-height: 19px;&quot;&gt;&lt;div&gt;input_file(&lt;span style=&quot;color: #9cdcfe;&quot;&gt;student_list&lt;/span&gt;, &lt;span style=&quot;color: #9cdcfe;&quot;&gt;n&lt;/span&gt;);&lt;/div&gt;&lt;div&gt;&amp;nbsp; &amp;nbsp; &amp;nbsp; &amp;nbsp; &amp;nbsp; &amp;nbsp; &amp;nbsp; &amp;nbsp; &lt;span style=&quot;color: #c586c0;&quot;&gt;break&lt;/span&gt;;&lt;/div&gt;&lt;/div&gt;" style="whiteSpace=wrap;html=1;" vertex="1" parent="1">
          <mxGeometry x="170" y="1180" width="390" height="60" as="geometry" />
        </mxCell>
        <mxCell id="c1HssWllYPfbHJCIFZM1-24" value="" style="edgeStyle=orthogonalEdgeStyle;rounded=0;orthogonalLoop=1;jettySize=auto;html=1;" edge="1" parent="1" source="c1HssWllYPfbHJCIFZM1-21" target="c1HssWllYPfbHJCIFZM1-23">
          <mxGeometry relative="1" as="geometry" />
        </mxCell>
        <mxCell id="c1HssWllYPfbHJCIFZM1-26" value="" style="edgeStyle=orthogonalEdgeStyle;rounded=0;orthogonalLoop=1;jettySize=auto;html=1;" edge="1" parent="1" source="c1HssWllYPfbHJCIFZM1-21" target="c1HssWllYPfbHJCIFZM1-25">
          <mxGeometry relative="1" as="geometry" />
        </mxCell>
        <mxCell id="c1HssWllYPfbHJCIFZM1-21" value="case 3" style="rhombus;whiteSpace=wrap;html=1;" vertex="1" parent="1">
          <mxGeometry x="30" y="1330" width="80" height="80" as="geometry" />
        </mxCell>
        <mxCell id="c1HssWllYPfbHJCIFZM1-23" value="&lt;div style=&quot;color: rgb(204, 204, 204); background-color: rgb(31, 31, 31); font-family: Consolas, &amp;quot;Courier New&amp;quot;, monospace; font-size: 14px; line-height: 19px;&quot;&gt;&lt;div&gt;output_file(&lt;span style=&quot;color: #9cdcfe;&quot;&gt;student_list&lt;/span&gt;,&lt;span style=&quot;color: #9cdcfe;&quot;&gt;n&lt;/span&gt;);&lt;/div&gt;&lt;div&gt;&amp;nbsp; &amp;nbsp; &amp;nbsp; &amp;nbsp; &amp;nbsp; &amp;nbsp; &amp;nbsp; &amp;nbsp; &lt;span style=&quot;color: #c586c0;&quot;&gt;for&lt;/span&gt; (&lt;span style=&quot;color: #569cd6;&quot;&gt;int&lt;/span&gt; &lt;span style=&quot;color: #9cdcfe;&quot;&gt;i&lt;/span&gt;&lt;span style=&quot;color: #d4d4d4;&quot;&gt;=&lt;/span&gt;&lt;span style=&quot;color: #b5cea8;&quot;&gt;0&lt;/span&gt;;&lt;span style=&quot;color: #9cdcfe;&quot;&gt;i&lt;/span&gt;&lt;span style=&quot;color: #d4d4d4;&quot;&gt;&amp;lt;&lt;/span&gt;&lt;span style=&quot;color: #9cdcfe;&quot;&gt;n&lt;/span&gt;;&lt;span style=&quot;color: #9cdcfe;&quot;&gt;i&lt;/span&gt;&lt;span style=&quot;color: #d4d4d4;&quot;&gt;++&lt;/span&gt;)&lt;/div&gt;&lt;div&gt;&amp;nbsp; &amp;nbsp; &amp;nbsp; &amp;nbsp; &amp;nbsp; &amp;nbsp; &amp;nbsp; &amp;nbsp; &amp;nbsp; &amp;nbsp; &lt;span style=&quot;color: #dcdcaa;&quot;&gt;output&lt;/span&gt;(&lt;span style=&quot;color: #d4d4d4;&quot;&gt;&amp;amp;&lt;/span&gt;&lt;span style=&quot;color: #9cdcfe;&quot;&gt;student_list&lt;/span&gt;[&lt;span style=&quot;color: #9cdcfe;&quot;&gt;i&lt;/span&gt;]);&lt;/div&gt;&lt;/div&gt;" style="whiteSpace=wrap;html=1;" vertex="1" parent="1">
          <mxGeometry x="170" y="1340" width="410" height="60" as="geometry" />
        </mxCell>
        <mxCell id="c1HssWllYPfbHJCIFZM1-28" value="" style="edgeStyle=orthogonalEdgeStyle;rounded=0;orthogonalLoop=1;jettySize=auto;html=1;" edge="1" parent="1" source="c1HssWllYPfbHJCIFZM1-25" target="c1HssWllYPfbHJCIFZM1-27">
          <mxGeometry relative="1" as="geometry" />
        </mxCell>
        <mxCell id="c1HssWllYPfbHJCIFZM1-25" value="case 4" style="rhombus;whiteSpace=wrap;html=1;" vertex="1" parent="1">
          <mxGeometry x="30" y="1490" width="80" height="80" as="geometry" />
        </mxCell>
        <mxCell id="c1HssWllYPfbHJCIFZM1-27" value="thoát" style="shape=parallelogram;perimeter=parallelogramPerimeter;whiteSpace=wrap;html=1;fixedSize=1;" vertex="1" parent="1">
          <mxGeometry x="170" y="1500" width="120" height="60" as="geometry" />
        </mxCell>
      </root>
    </mxGraphModel>
  </diagram>
</mxfile>
